<svg width="40" height="40" viewBox="0 0 40 40" fill="none" xmlns="http://www.w3.org/2000/svg">
<circle cx="20" cy="20" r="20" fill="#908CFF"/>
<circle cx="27.5" cy="20" r="1.5" fill="white"/>
<path fill-rule="evenodd" clip-rule="evenodd" d="M27.9231 16L28.1741 16.436L22.0001 20L28.1741 23.561L27.9231 23.994C26.1137 27.1311 22.4226 28.6614 18.9243 27.7249C15.426 26.7883 12.9932 23.6185 12.9932 19.997C12.9932 16.3755 15.426 13.2057 18.9243 12.2691C22.4226 11.3326 26.1137 12.8629 27.9231 16ZM22.5001 15.5C21.9478 15.5 21.5001 15.9477 21.5001 16.5C21.5001 17.0523 21.9478 17.5 22.5001 17.5C23.0524 17.5 23.5001 17.0523 23.5001 16.5C23.5001 15.9477 23.0524 15.5 22.5001 15.5Z" fill="white"/>
</svg>
