<svg width="641" height="558" viewBox="0 0 641 558" fill="none" xmlns="http://www.w3.org/2000/svg">
<path opacity="0.3" d="M-178.496 575.408C-171.966 605.678 -147.376 629.838 -118.176 638.848C-87.9255 648.178 -56.1755 638.748 -34.9755 615.458C-14.5255 592.968 -4.87552 559.458 -16.0555 530.358C-26.5155 503.138 -56.3455 479.488 -86.1655 492.628C-111.346 503.728 -126.066 536.628 -115.076 562.328C-104.086 588.028 -73.3255 600.518 -46.7655 595.818C-13.2555 589.878 5.2345 557.318 14.6045 527.548C26.0245 491.488 27.7045 449.478 53.9845 419.938C74.7045 396.648 106.984 385.228 137.814 387.548C153.264 388.609 168.205 393.507 181.284 401.798C195.474 410.968 207.624 426.618 209.284 443.878C211.134 463.078 196.404 476.878 177.914 478.268C157.585 479.778 139.814 467.458 124.384 455.748C94.9245 433.378 65.5945 404.748 56.5145 367.588C48.5145 334.678 57.5745 295.098 88.9045 277.648C124.424 257.868 166.814 271.948 198.154 292.918C215.154 304.298 230.664 317.828 246.154 331.148C261.904 344.688 277.575 358.348 293.965 371.148C325.044 395.368 359.154 416.498 397.894 425.608C434.234 434.158 473.315 431.608 505.505 411.438C535.505 392.698 556.674 362.438 570.245 330.258C587.245 290.058 593.924 246.358 602.065 203.758L628.185 67.1179L640.704 1.59784C640.974 0.187866 638.815 -0.402161 638.534 0.997864L612.724 135.998C604.334 179.918 596.905 224.148 587.065 267.768C578.294 306.598 565.525 345.548 540.255 376.978C529.065 390.898 515.635 403.138 500.075 412.028C483.078 421.572 464.078 426.994 444.604 427.858C359.894 432.208 294.984 369.468 235.094 318.738C206.554 294.578 174.774 269.738 136.094 266.418C119.374 264.968 101.895 267.618 87.1845 276.008C73.9109 283.737 63.6041 295.684 57.9045 309.948C45.2545 340.728 52.1245 375.398 69.5545 402.778C79.3245 418.078 91.9045 431.408 105.504 443.308C119.404 455.458 134.674 468.168 151.724 475.548C166.244 481.828 184.134 483.258 197.794 473.998C209.995 465.718 213.854 451.058 210.365 437.188C202.764 406.978 172.174 389.528 143.115 385.838C114.294 382.188 83.7445 390.618 61.5045 409.458C33.2145 433.458 26.4245 470.918 18.2845 505.168C10.5845 537.608 -2.4055 577.438 -36.5955 590.668C-63.9055 601.238 -100.096 589.898 -112.596 562.398C-125.246 534.618 -105.596 496.758 -75.3055 491.678C-39.0055 485.578 -13.2055 525.238 -13.5755 557.288C-13.9455 589.338 -34.5755 620.678 -63.7955 633.888C-94.2155 647.618 -130.216 637.978 -153.556 615.248C-164.953 604.314 -172.865 590.255 -176.296 574.838C-176.606 573.408 -178.766 574.028 -178.496 575.408Z" fill="#9A97ED"/>
</svg>
