<svg width="795" height="323" viewBox="0 0 795 323" fill="none" xmlns="http://www.w3.org/2000/svg">
<path opacity="0.3" d="M0.866626 102.6C16.9065 133.409 48.8569 155.603 83.7705 157.942C114.676 159.984 148.631 146.315 162.808 117.397C175.367 91.7679 171.356 55.6851 146.554 38.6711C124.673 23.6569 89.9589 28.3081 74.6111 50.5209C59.0492 73.0274 70.6925 102.343 90.0566 118.179C113.555 137.465 145.336 135.793 171.958 124.218C207.341 108.883 232.211 78.7389 259.077 52.3152C284.142 27.6556 315.31 3.44107 352.158 2.7696C390.279 2.04763 421.302 30.2544 434.695 64.2215C441.481 81.4369 444.415 100.021 444.659 118.468C444.915 137.176 442.34 156.21 435.155 173.598C421.963 205.484 388.994 233.131 352.649 225.35C336.883 221.969 322.081 212.248 314.467 197.805C307.013 183.657 308.076 166.75 314.887 152.586C321.742 138.215 333.935 127.086 348.871 121.568C364.438 115.915 381.635 116.201 397.455 120.664C436.438 131.673 461.744 166.592 478.301 201.516C494.19 235.029 505.64 272.319 533.604 298.28C544.955 308.825 558.668 317.313 573.931 320.639C589.605 324.029 605.525 321.219 619.939 314.397C655.972 297.41 676.724 261.065 709.049 239.065C735.621 220.992 768.129 212.277 800.166 213.521C816.216 214.109 832.063 217.308 847.085 222.992C865.105 229.884 880.806 241.654 898.961 248.204C913.195 253.331 930.455 254.79 943.869 246.6C959.684 236.946 964.532 217.689 969.995 201.264C975.175 185.65 984.25 167.14 1002.31 164.271C1003.74 164.041 1003.11 161.874 1001.7 162.111C985.636 164.669 976.002 179.54 970.377 193.584C963.431 210.94 960.598 233.005 943.67 244.072C928.231 254.186 908.267 250.199 892.473 243.204C875.787 235.752 860.732 225.3 843.364 219.302C814.086 209.169 781.686 208.66 751.894 216.91C736.947 221.021 722.729 227.429 709.75 235.906C693.333 246.687 679.885 261.074 666.261 275.067C641.456 300.422 609.327 327.935 571.141 317.625C535.882 308.071 514.291 275.237 499.731 244.119C483.024 208.329 470.017 170.161 440.124 142.698C416.449 120.962 382.076 108.273 350.391 118.67C323.874 127.415 303.441 154.865 307.497 183.415C311.792 213.517 343.714 232.069 372.455 228.434C406.179 224.161 430.948 195.949 440.702 164.845C450.97 132.014 449.144 92.9934 435.909 61.2654C423.037 30.415 395.706 4.25839 361.341 0.890784C329.136 -2.26702 298.489 14.5833 274.733 34.8071C244.141 60.8715 220.116 94.8058 184.905 115.159C157.977 130.735 122.421 138.576 95.2251 119.32C72.9769 103.562 58.9667 69.9171 80.092 47.2781C90.2418 36.4079 105.737 31.5334 120.348 32.3534C136.079 33.0703 150.452 41.4767 158.788 54.8366C167.272 68.4509 169.359 85.5078 166.059 101.061C162.535 117.432 152.85 131.822 139.01 141.25C109.43 161.717 69.4292 159.621 39.5231 141.098C23.9562 131.415 11.2754 117.729 2.80589 101.47C2.13249 100.167 0.200673 101.318 0.866626 102.6Z" fill="#9A97ED"/>
</svg>
